<svg version="1.0" id="Capa_1" xmlns="http://www.w3.org/2000/svg" xmlns:xlink="http://www.w3.org/1999/xlink" x="0px" y="0px" width="1200px" height="1200px" viewBox="0 0 1200 1200" enable-background="new 0 0 1200 1200" xml:space="preserve">
<g>
	<path fill="#0099D0" d="M599.999,55.984v456.841c11.632-0.651,23.526,2.515,32.197,9.516c0.587,0.475,1.647,0.658,2.43,0.556
		c13.443-1.753,26.494-5.219,39.38-9.312c5.746-1.826,11.148-0.885,16.359,1.511c12.822,5.894,21.51,19.183,19.223,34.215
		c-2.22,14.601-16.696,27.07-31.367,25.931c-4.294-0.333-8.426-2.413-12.698-3.408c-10.263-2.392-20.559-4.635-30.86-6.863
		c-0.705-0.152-1.651,0.147-2.306,0.538c-2.731,1.63-5.425,3.329-8.058,5.114c-0.636,0.431-1.392,1.287-1.398,1.953
		c-0.071,10.732-0.032,21.466-0.012,32.199c0.002,0.142,0.086,0.284,0.256,0.813c3.727,0,7.446-0.071,11.162,0.022
		c3.141,0.079,5.506,2.179,6.106,5.177c0.491,2.454-0.869,5.322-3.263,6.458c-0.921,0.437-2.042,0.632-3.072,0.634
		c-11.361,0.02-22.72,0.009-34.081,0.01v3.924c1.021,0,2.041,0,3.062,0c15.53,0,31.06-0.038,46.589,0.056
		c1.661,0.01,3.337,0.731,4.966,1.245c0.445,0.14,0.804,0.689,1.107,1.117c1.23,1.735,1.319,11.471-0.254,12.772
		c-1.407,1.165-3.41,2.17-5.187,2.234c-6.996,0.251-14.007,0.104-21.011,0.104c-9.757,0-19.515-0.031-29.272-0.031v4.254
		c16.515,0,33.029-0.001,49.544,0.001c3.06,0,3.067,0.007,3.059,3.114c-0.019,9.281-0.238,18.578,2.061,27.684
		c1.702,6.736,4.433,12.933,9.594,17.806c5.224,4.932,11.576,7.381,18.627,7.448c19.188,0.182,38.376,0.091,57.566,0.109
		c0.981,0.001,1.963,0,3.133,0c0,24.063,0,47.979,0,72.115c-0.786,0-1.526,0.004-2.267-0.001
		c-14.771-0.103-29.542-0.159-44.313-0.326c-12.268-0.138-24.221,1.445-34.999,7.628c-6.44,3.693-12.592,7.979-18.497,12.492
		c-12.965,9.906-27.417,14.238-43.507,13.151v338.083c104.906-10.819,371.738-98.569,371.738-355.953
		C971.738,509.069,601.465,51.895,599.999,55.984z M796.794,787.288c-12.667,0-25.132,0-37.599,0
		c-0.978-2.355-1.871-4.751-2.954-7.056c-1.508-3.208-3.999-5.459-7.126-7.125c-0.651-0.348-1.293-1.431-1.295-2.176
		c-0.068-23.287-0.045-46.573-0.085-69.86c-0.002-1.37,0.297-2.125,1.652-2.754c5.107-2.372,7.383-6.977,9.021-12.01
		c0.21-0.647,0.386-1.306,0.586-1.986c12.577,0,25.106,0,37.799,0C796.794,718.652,796.794,752.859,796.794,787.288z" style="fill: rgb(255, 255, 255);"></path>
	<path fill="#00C0F3" d="M526.135,512.757c3.742-0.021,7.543,1.447,11.229,2.537c7.436,2.198,14.929,4.124,22.51,5.651
		c3.791,0.763,7.598,1.457,11.443,1.975c0.768,0.103,1.796-0.176,2.403-0.657c7.277-5.779,16.689-8.901,26.28-9.438V55.984
		c-41.33,50.298-371.737,460.53-371.737,720.993c0,277.841,267.467,367.948,350,367.058c6.076,0.065,13.401-0.313,21.737-1.172
		V804.781c-0.526-0.035-1.038-0.025-1.566-0.072c-10.245-0.913-19.225-4.539-27.35-10.187c-2.178-1.513-4.306-3.142-6.365-4.938
		c-5.028-4.385-10.054-9.127-15.881-12.174c-17.38-9.091-34.414-7.286-50.158,4.19c-9.611,7.006-15.21,17.138-18.85,28.207
		c-2.505,7.619-4.132,15.527-6.15,23.306c-0.172,0.661-0.328,1.326-0.524,2.121c-21.072,0-42.129,0-63.625,0
		c0.42-4.172,0.6-8.264,1.275-12.275c2.869-17.052,7.287-33.673,14.427-49.484c10.276-22.755,24.657-42.235,45.469-56.5
		c14.771-10.123,31.057-16.443,48.751-19.214c5.015-0.785,10.116-1.433,14.952-2.893c11.884-3.587,18.667-12.393,19.276-24.862
		c0.398-8.13,0.277-16.285,0.397-24.429c0.008-0.588,0.092-1.175,0.162-2.016c1,0,1.894,0,2.789,0c2.117,0,4.235,0,6.353,0
		c12.206,0,24.414,0.001,36.621,0.001v-4.254c-12.264,0-24.528,0.006-36.792-0.038c-2.345-0.008-4.689,0.004-7.034-0.007
		c-1.825-0.009-3.774-0.887-5.412-1.81c-0.781-0.44-1.268-1.909-1.36-2.958c-0.203-2.336-0.105-4.702-0.077-7.055
		c0.042-3.347,1.914-5.398,5.322-5.565c2.633-0.128,5.272-0.085,7.911-0.069c0.481,0.003,0.962,0.008,1.444,0.008
		c11.999-0.003,23.999-0.002,35.999-0.002v-3.924c-9.418,0.002-18.837,0.017-28.256,0.009c-3.749-0.003-6.299-2.497-6.304-6.02
		c-0.004-3.543,2.496-6.14,6.161-6.271c1.894-0.067,3.796,0.063,5.694,0.081c1.804,0.017,3.609,0.004,5.652,0.004
		c0-2.731-0.001-5.141,0-7.551c0.005-8.374-0.019-16.747,0.048-25.121c0.009-1.226-0.338-1.883-1.409-2.508
		c-2.803-1.634-5.473-3.5-8.278-5.131c-0.698-0.405-1.745-0.486-2.571-0.351c-3.307,0.543-6.602,1.139-9.886,1.784
		c-9.225,1.814-18.343,4.078-27.268,7.12c-11.271,3.842-20.599,0.005-28.447-7.784c-12.028-11.939-12.398-29.755-1.231-42.438
		C509.772,517.047,517.13,512.807,526.135,512.757z M411.113,838.996c20.254,0.077,40.509,0.067,60.763,0
		c2.973-0.01,4.912,1.192,6.133,3.803c2.409,5.149,2.323,10.293-0.074,15.401c-1.177,2.511-3.135,3.656-6.014,3.629
		c-10.127-0.093-20.255-0.036-30.382-0.035c-10.203,0.002-20.407-0.058-30.609,0.038c-3.009,0.028-4.982-1.308-6.102-3.879
		c-2.133-4.899-2.149-9.896-0.112-14.844C405.873,840.296,407.923,838.984,411.113,838.996z" style="fill: rgb(255, 255, 255);"></path>
</g>
</svg>