<svg height="512pt" viewBox="0 -26 512 512" width="512pt" xmlns="http://www.w3.org/2000/svg"><path d="m491.007812 328.648438h-449.710937c-11.578125 0-20.996094-9.417969-20.996094-20.992188v-286.664062c0-11.574219 9.417969-20.992188 20.996094-20.992188h449.710937c11.574219 0 20.992188 9.417969 20.992188 20.992188v286.664062c0 11.574219-9.417969 20.992188-20.992188 20.992188zm-445.613281-25.09375h441.511719v-278.460938h-441.511719zm0 0" fill="#e4f2f6"/><path d="m166.226562 86.234375c0 10.257813-8.3125 18.570313-18.566406 18.570313s-18.570312-8.3125-18.570312-18.570313c0-10.253906 8.316406-18.566406 18.570312-18.566406s18.566406 8.3125 18.566406 18.566406zm0 0" fill="#ffda52"/><g fill="#fff5aa"><path d="m147.660156 59.136719c-3.050781 0-5.519531-2.472657-5.519531-5.519531v-18.070313c0-3.046875 2.46875-5.519531 5.519531-5.519531 3.046875 0 5.519532 2.472656 5.519532 5.519531v18.070313c0 3.046874-2.472657 5.519531-5.519532 5.519531zm0 0"/><path d="m147.660156 142.441406c-3.050781 0-5.519531-2.46875-5.519531-5.519531v-18.066406c0-3.050781 2.46875-5.519531 5.519531-5.519531 3.046875 0 5.519532 2.46875 5.519532 5.519531v18.066406c0 3.050781-2.472657 5.519531-5.519532 5.519531zm0 0"/><path d="m198.347656 91.753906h-18.066406c-3.050781 0-5.523438-2.46875-5.523438-5.519531 0-3.046875 2.472657-5.519531 5.523438-5.519531h18.066406c3.046875 0 5.519532 2.472656 5.519532 5.519531 0 3.050781-2.472657 5.519531-5.519532 5.519531zm0 0"/><path d="m115.039062 91.753906h-18.066406c-3.050781 0-5.519531-2.46875-5.519531-5.519531 0-3.046875 2.46875-5.519531 5.519531-5.519531h18.066406c3.050782 0 5.519532 2.472656 5.519532 5.519531 0 3.050781-2.472656 5.519531-5.519532 5.519531zm0 0"/><path d="m166.820312 67.074219c-2.15625-2.15625-2.15625-5.652344 0-7.808594l12.777344-12.773437c2.15625-2.15625 5.648438-2.15625 7.804688 0s2.15625 5.648437 0 7.804687l-12.773438 12.777344c-2.15625 2.15625-5.652344 2.15625-7.808594 0zm0 0"/><path d="m107.914062 125.980469c-2.15625-2.15625-2.15625-5.652344 0-7.808594l12.773438-12.773437c2.15625-2.15625 5.652344-2.15625 7.808594 0s2.15625 5.648437 0 7.804687l-12.773438 12.777344c-2.15625 2.15625-5.652344 2.15625-7.808594 0zm0 0"/><path d="m179.597656 125.980469-12.777344-12.777344c-2.15625-2.15625-2.15625-5.648437 0-7.804687s5.652344-2.15625 7.808594 0l12.773438 12.773437c2.15625 2.15625 2.15625 5.652344 0 7.808594s-5.648438 2.15625-7.804688 0zm0 0"/><path d="m120.6875 67.074219-12.773438-12.777344c-2.15625-2.15625-2.15625-5.648437 0-7.804687s5.652344-2.15625 7.808594 0l12.773438 12.773437c2.15625 2.15625 2.15625 5.652344 0 7.808594s-5.648438 2.15625-7.808594 0zm0 0"/></g><path d="m400.285156 86.941406c0 10.253906-8.316406 18.566406-18.570312 18.566406s-18.566406-8.3125-18.566406-18.566406c0-10.257812 8.3125-18.570312 18.566406-18.570312s18.570312 8.3125 18.570312 18.570312zm0 0" fill="#ffda52"/><path d="m381.714844 59.839844c-3.046875 0-5.519532-2.472656-5.519532-5.519532v-18.066406c0-3.050781 2.472657-5.519531 5.519532-5.519531 3.050781 0 5.519531 2.46875 5.519531 5.519531v18.066406c0 3.046876-2.46875 5.519532-5.519531 5.519532zm0 0" fill="#fff5aa"/><path d="m381.714844 143.148438c-3.046875 0-5.519532-2.472657-5.519532-5.523438v-18.066406c0-3.046875 2.472657-5.519532 5.519532-5.519532 3.050781 0 5.519531 2.472657 5.519531 5.519532v18.066406c0 3.050781-2.46875 5.523438-5.519531 5.523438zm0 0" fill="#fff5aa"/><path d="m432.402344 92.460938h-18.066406c-3.050782 0-5.519532-2.472657-5.519532-5.519532 0-3.050781 2.46875-5.523437 5.519532-5.523437h18.066406c3.050781 0 5.519531 2.472656 5.519531 5.523437 0 3.046875-2.46875 5.519532-5.519531 5.519532zm0 0" fill="#fff5aa"/><path d="m349.09375 92.460938h-18.066406c-3.046875 0-5.519532-2.472657-5.519532-5.519532 0-3.050781 2.472657-5.523437 5.519532-5.523437h18.066406c3.050781 0 5.523438 2.472656 5.523438 5.523437 0 3.046875-2.472657 5.519532-5.523438 5.519532zm0 0" fill="#fff5aa"/><path d="m400.878906 67.777344c-2.15625-2.15625-2.15625-5.648438 0-7.804688l12.773438-12.777344c2.15625-2.152343 5.652344-2.152343 7.808594 0 2.15625 2.15625 2.15625 5.652344 0 7.808594l-12.777344 12.773438c-2.15625 2.15625-5.648438 2.15625-7.804688 0zm0 0" fill="#fff5aa"/><path d="m341.972656 126.683594c-2.15625-2.15625-2.15625-5.648438 0-7.804688l12.773438-12.777344c2.15625-2.152343 5.652344-2.152343 7.808594 0 2.15625 2.15625 2.15625 5.652344 0 7.808594l-12.777344 12.773438c-2.15625 2.15625-5.648438 2.15625-7.804688 0zm0 0" fill="#fff5aa"/><path d="m413.652344 126.683594-12.773438-12.773438c-2.15625-2.15625-2.15625-5.652344 0-7.808594 2.152344-2.152343 5.648438-2.152343 7.804688 0l12.773437 12.777344c2.15625 2.15625 2.15625 5.648438 0 7.804688-2.152343 2.15625-5.648437 2.15625-7.804687 0zm0 0" fill="#fff5aa"/><path d="m354.746094 67.777344-12.773438-12.773438c-2.15625-2.15625-2.15625-5.652344 0-7.808594 2.15625-2.152343 5.648438-2.152343 7.804688 0l12.777344 12.777344c2.15625 2.15625 2.15625 5.648438 0 7.804688-2.160157 2.15625-5.652344 2.15625-7.808594 0zm0 0" fill="#fff5aa"/><path d="m300.367188 80.945312c-.117188 0-.230469.011719-.347657.015626.214844-1.210938.347657-2.449219.347657-3.722657 0-11.640625-9.4375-21.078125-21.078126-21.078125-9.5625 0-17.625 6.375-20.203124 15.101563-1.257813-.242188-2.554688-.378907-3.882813-.378907-11.273437 0-20.410156 9.136719-20.410156 20.40625 0 11.269532 9.136719 20.410157 20.410156 20.410157h45.164063c8.492187 0 15.378906-6.886719 15.378906-15.378907 0-8.492187-6.886719-15.375-15.378906-15.375zm0 0" fill="#afe6ff"/><path d="m180.019531 309.085938h-64.71875v-138.089844c0-4.667969 3.78125-8.449219 8.445313-8.449219h47.828125c4.664062 0 8.445312 3.78125 8.445312 8.449219zm0 0" fill="#d6eed8"/><path d="m311.898438 309.085938h-64.71875v-138.089844c0-4.667969 3.78125-8.449219 8.445312-8.449219h47.828125c4.664063 0 8.445313 3.78125 8.445313 8.449219zm0 0" fill="#96dbbf"/><path d="m451.808594 309.085938h-64.71875v-138.089844c0-4.667969 3.78125-8.449219 8.445312-8.449219h47.828125c4.664063 0 8.445313 3.78125 8.445313 8.449219zm0 0" fill="#55c7a6"/><path d="m196.543641 215.967045c-2.790475 0-5.471978-1.564534-6.764081-4.246036-1.798047-3.73231-.229621-8.215751 3.502689-10.013798l91.334551-43.997661c3.728417-1.798046 8.211859-.22962 10.009906 3.498797 1.798046 3.732309.22962 8.215751-3.498797 10.013798l-91.334551 44.001552c-1.050807.505944-2.159992.743348-3.249717.743348zm0 0" fill="#6c9baa" stroke="#87afb9" stroke-miterlimit="10" stroke-width=".7673" transform="matrix(1.003693 0 0 1.003693 0 -25.940453)"/><path d="m61.445312 460.117188c-11.140624 0-20.171874-9.03125-20.171874-20.171876v-161.25c0-11.144531 9.03125-20.175781 20.171874-20.175781 11.144532 0 20.175782 9.03125 20.175782 20.175781v161.25c0 11.140626-9.03125 20.171876-20.175782 20.171876zm0 0" fill="#748488"/><path d="m120.230469 71.636719c0 19.242187-15.597657 34.839843-34.839844 34.839843-19.246094 0-34.84375-15.597656-34.84375-34.839843 0-19.242188 15.597656-34.84375 34.84375-34.84375 19.242187 0 34.839844 15.601562 34.839844 34.84375zm0 0" fill="#ba6746"/><path d="m110.144531 460.117188c-11.140625 0-20.171875-9.03125-20.171875-20.171876v-161.25c0-11.144531 9.03125-20.175781 20.171875-20.175781 11.144531 0 20.175781 9.03125 20.175781 20.175781v161.25c0 11.140626-9.03125 20.171876-20.175781 20.171876zm0 0" fill="#55696e"/><path d="m222.613281 170.488281c-4.707031-8-15.011719-10.671875-23.015625-5.960937l-29.03125 17.082031-.125-24.441406c-.109375-21.828125-17.957031-39.585938-39.785156-39.585938-10.226562 0-80.023438 0-90.25 0-22.171875 0-40.296875 17.757813-40.40625 39.671875v123.507813c0 9.285156 7.527344 16.808593 16.8125 16.808593s16.8125-7.523437 16.8125-16.808593v-123.421875c.015625-3.210938 3.246094-6.132813 6.78125-6.132813h.867188v127.488281h89.046874v-127.488281h.339844c3.378906 0 6.144532 2.75 6.160156 6.128907l.269532 53.667968c.066406 12.929688 14.160156 20.984375 25.335937 14.40625l54.222657-31.90625c8.003906-4.707031 10.671874-15.011718 5.964843-23.015625zm0 0" fill="#ba6746"/><path d="m170.441406 157.167969c-.109375-21.828125-17.957031-39.585938-39.785156-39.585938h-25.289062c.011718.152344.035156.296875.042968.449219.464844 10.441406-9.222656 19.335938-19.339844 19.335938-10.839843 0-18.867187-8.859376-19.335937-19.335938-.007813-.152344-.003906-.296875-.007813-.449219h-26.320312c-22.171875 0-40.296875 17.757813-40.40625 39.671875v23.148438h33.621094v-23.0625c.019531-3.210938 3.25-6.132813 6.785156-6.132813h.867188v127.488281h89.046874v-127.488281h.335938c3.382812 0 6.144531 2.75 6.164062 6.128907l.113282 23.066406h33.625zm0 0" fill="#ffda52"/><path d="m456.589844 91.5625c-.117188 0-.230469.015625-.347656.019531.214843-1.210937.347656-2.449219.347656-3.722656 0-11.640625-9.433594-21.078125-21.078125-21.078125-9.5625 0-17.625 6.371094-20.203125 15.101562-1.257813-.246093-2.554688-.382812-3.882813-.382812-11.273437 0-20.410156 9.140625-20.410156 20.410156 0 11.269532 9.140625 20.40625 20.410156 20.40625h45.164063c8.492187 0 15.378906-6.882812 15.378906-15.375 0-8.492187-6.886719-15.378906-15.378906-15.378906zm0 0" fill="#afe6ff"/></svg>